<svg xmlns="http://www.w3.org/2000/svg" xmlns:xlink="http://www.w3.org/1999/xlink" width="72" height="72"><defs><path id="a" d="M791.098 1746.774c19.51 0 35.325 15.815 35.325 35.324 0 19.51-15.816 35.325-35.325 35.325-19.51 0-35.325-15.815-35.325-35.325 0-19.509 15.816-35.324 35.325-35.324z"/><path id="b" d="M776.565 1769.93h20.267a4.053 4.053 0 0 1 4.054 4.053v2.495l9.457-6.548v24.32l-9.457-6.548v2.494a4.053 4.053 0 0 1-4.054 4.054h-20.267a4.053 4.053 0 0 1-4.053-4.054v-16.213a4.053 4.053 0 0 1 4.053-4.053z"/></defs><use fill="#222" xlink:href="#a" transform="translate(-755 -1746)"/><use fill="#fff" xlink:href="#b" transform="translate(-755 -1746)"/></svg>