<svg xmlns="http://www.w3.org/2000/svg" xmlns:xlink="http://www.w3.org/1999/xlink" width="72" height="71"><defs><path id="a" d="M304.913 1599.985c19.509 0 35.324 15.815 35.324 35.324 0 19.51-15.815 35.325-35.324 35.325-19.51 0-35.325-15.815-35.325-35.325 0-19.509 15.815-35.324 35.325-35.324z"/><path id="b" d="M294.628 1629.673s5.925-1.484 10.392-1.484c4.44 0 10.393 1.484 10.393 1.484l-1.484 11.878-4.454 2.968v10.393s-2.241 1.485-4.455 1.485c-2.24 0-4.454-1.485-4.454-1.485v-10.393l-4.454-2.968zm10.393-17.816a7.423 7.423 0 1 1 0 14.846 7.423 7.423 0 0 1 0-14.846z"/></defs><use fill="#222" xlink:href="#a" transform="translate(-269 -1600)"/><use fill="#fff" xlink:href="#b" transform="translate(-269 -1600)"/></svg>