<svg xmlns="http://www.w3.org/2000/svg" xmlns:xlink="http://www.w3.org/1999/xlink" width="72" height="71"><defs><path id="a" d="M791.024 1599.985c19.51 0 35.325 15.815 35.325 35.324 0 19.51-15.815 35.325-35.325 35.325-19.509 0-35.324-15.815-35.324-35.325 0-19.509 15.815-35.324 35.324-35.324z"/><path id="b" d="M776.326 1618.882h30.5a3.519 3.519 0 0 1 3.519 3.519v29.326h-37.538v-29.326a3.519 3.519 0 0 1 3.52-3.519zm5.865 4.105a1.76 1.76 0 1 0 3.52 0 1.76 1.76 0 0 0-3.52 0zm-5.865 0a1.76 1.76 0 1 0 3.52 0 1.76 1.76 0 0 0-3.52 0zm11.73 0a1.76 1.76 0 1 0 3.52 0 1.76 1.76 0 0 0-3.52 0zm-12.903 4.106v22.289h32.846v-22.289z"/></defs><use fill="#222" xlink:href="#a" transform="translate(-755 -1600)"/><use fill="#fff" xlink:href="#b" transform="translate(-755 -1600)"/></svg>